<svg width="40" height="40" viewBox="4 4 40 40" fill="none" xmlns="http://www.w3.org/2000/svg">
<g id="mdi:delete-circle">
<path id="Vector" d="M24 6C33.954 6 42 14.046 42 24C42 33.954 33.954 42 24 42C14.046 42 6 33.954 6 24C6 14.046 14.046 6 24 6ZM33 15H28.5L26.7 13.2H21.3L19.5 15H15V18.6H33V15ZM18.6 34.8H29.4C29.8774 34.8 30.3352 34.6104 30.6728 34.2728C31.0104 33.9352 31.2 33.4774 31.2 33V20.4H16.8V33C16.8 33.4774 16.9896 33.9352 17.3272 34.2728C17.6648 34.6104 18.1226 34.8 18.6 34.8Z" fill="#F6008F"/>
</g>
</svg>
