<svg width="32" height="32" viewBox="0 0 32 32" fill="none" xmlns="http://www.w3.org/2000/svg">
<g id="bxs:edit">
<path id="Vector" d="M25.3172 2.68262L29.3172 6.68262L26.2678 9.73328L22.2678 5.73328L25.3172 2.68262ZM10.6665 21.3333H14.6665L24.3825 11.6173L20.3825 7.61728L10.6665 17.3333V21.3333Z" fill="white"/>
<path id="Vector_2" d="M25.3333 25.3333H10.8773C10.8427 25.3333 10.8067 25.3467 10.772 25.3467C10.728 25.3467 10.684 25.3347 10.6387 25.3333H6.66667V6.66667H15.796L18.4627 4H6.66667C5.196 4 4 5.19467 4 6.66667V25.3333C4 26.8053 5.196 28 6.66667 28H25.3333C26.0406 28 26.7189 27.719 27.219 27.219C27.719 26.7189 28 26.0406 28 25.3333V13.776L25.3333 16.4427V25.3333Z" fill="white"/>
</g>
</svg>
