<svg width="20" height="20" viewBox="0 0 20 20" fill="none" xmlns="http://www.w3.org/2000/svg">
<g id="mingcute:plus-fill" clip-path="url(#clip0_75_321)">
<g id="Group">
<path id="Vector" fill-rule="evenodd" clip-rule="evenodd" d="M7.5 4.16667C7.5 3.72464 7.67559 3.30072 7.98816 2.98816C8.30072 2.67559 8.72464 2.5 9.16667 2.5H10.8333C11.2754 2.5 11.6993 2.67559 12.0118 2.98816C12.3244 3.30072 12.5 3.72464 12.5 4.16667V7.5H15.8333C16.2754 7.5 16.6993 7.67559 17.0118 7.98816C17.3244 8.30072 17.5 8.72464 17.5 9.16667V10.8333C17.5 11.2754 17.3244 11.6993 17.0118 12.0118C16.6993 12.3244 16.2754 12.5 15.8333 12.5H12.5V15.8333C12.5 16.2754 12.3244 16.6993 12.0118 17.0118C11.6993 17.3244 11.2754 17.5 10.8333 17.5H9.16667C8.72464 17.5 8.30072 17.3244 7.98816 17.0118C7.67559 16.6993 7.5 16.2754 7.5 15.8333V12.5H4.16667C3.72464 12.5 3.30072 12.3244 2.98816 12.0118C2.67559 11.6993 2.5 11.2754 2.5 10.8333V9.16667C2.5 8.72464 2.67559 8.30072 2.98816 7.98816C3.30072 7.67559 3.72464 7.5 4.16667 7.5H7.5V4.16667Z" fill="white"/>
</g>
</g>
<defs>
<clipPath id="clip0_75_321">
<rect width="20" height="20" fill="white"/>
</clipPath>
</defs>
</svg>
