<svg width="60" height="60" viewBox="0 0 60 60" fill="none" xmlns="http://www.w3.org/2000/svg">
<rect width="60" height="60" fill="#112639"/>
<path d="M12.1545 27V16.8182H19.0153V18.593H14.3072V21.0192H18.6623V22.794H14.3072V25.2251H19.0352V27H12.1545ZM29.2431 16.8182V27H27.3837L22.954 20.5916H22.8794V27H20.7267V16.8182H22.6159L27.0108 23.2216H27.1003V16.8182H29.2431ZM37.7731 20.1094C37.7035 19.8674 37.6057 19.6536 37.4798 19.468C37.3538 19.2791 37.1997 19.12 37.0174 18.9908C36.8384 18.8582 36.6329 18.7571 36.4009 18.6875C36.1722 18.6179 35.9187 18.5831 35.6403 18.5831C35.1199 18.5831 34.6625 18.7124 34.2681 18.9709C33.877 19.2294 33.5721 19.6056 33.3533 20.0994C33.1346 20.59 33.0252 21.1899 33.0252 21.8991C33.0252 22.6084 33.1329 23.2116 33.3484 23.7088C33.5638 24.206 33.8687 24.5855 34.2631 24.8473C34.6576 25.1058 35.1232 25.2351 35.6602 25.2351C36.1474 25.2351 36.5633 25.1489 36.908 24.9766C37.256 24.8009 37.5212 24.554 37.7035 24.2358C37.8891 23.9176 37.9819 23.5414 37.9819 23.1072L38.4194 23.1719H35.7944V21.5511H40.055V22.8338C40.055 23.7287 39.8661 24.4976 39.4883 25.1406C39.1104 25.7803 38.5901 26.2741 37.9272 26.6222C37.2643 26.9669 36.5053 27.1392 35.6502 27.1392C34.6957 27.1392 33.8571 26.9287 33.1346 26.5078C32.4121 26.0836 31.8486 25.482 31.4442 24.7031C31.0432 23.9209 30.8427 22.9929 30.8427 21.919C30.8427 21.0937 30.962 20.358 31.2006 19.7116C31.4426 19.062 31.7807 18.5118 32.2148 18.0611C32.649 17.6103 33.1545 17.2673 33.7312 17.032C34.3079 16.7966 34.9326 16.679 35.6055 16.679C36.1822 16.679 36.7191 16.7635 37.2163 16.9325C37.7134 17.0982 38.1542 17.3336 38.5387 17.6385C38.9265 17.9434 39.243 18.3063 39.4883 18.7273C39.7335 19.1449 39.891 19.6056 39.9606 20.1094H37.7731ZM41.6721 27V16.8182H43.8248V25.2251H48.1898V27H41.6721Z" fill="white"/>
<path d="M11.3752 44V33.8182H15.3922C16.1612 33.8182 16.8174 33.9557 17.361 34.2308C17.9078 34.5026 18.3238 34.8887 18.6088 35.3892C18.8972 35.8864 19.0414 36.4714 19.0414 37.1442C19.0414 37.8203 18.8955 38.402 18.6039 38.8892C18.3122 39.3731 17.8896 39.7443 17.3361 40.0028C16.7859 40.2614 16.1197 40.3906 15.3375 40.3906H12.6479V38.6605H14.9895C15.4005 38.6605 15.7419 38.6042 16.0137 38.4915C16.2855 38.3788 16.4876 38.2098 16.6202 37.9844C16.7561 37.759 16.824 37.4789 16.824 37.1442C16.824 36.8061 16.7561 36.5211 16.6202 36.2891C16.4876 36.0571 16.2838 35.8814 16.0087 35.7621C15.7369 35.6394 15.3939 35.5781 14.9796 35.5781H13.5279V44H11.3752ZM16.8738 39.3665L19.4043 44H17.0279L14.552 39.3665H16.8738ZM26.8517 33.8182H29.0044V40.4304C29.0044 41.1728 28.8271 41.8224 28.4725 42.3793C28.1212 42.9361 27.629 43.3703 26.9959 43.6818C26.3629 43.9901 25.6254 44.1442 24.7836 44.1442C23.9384 44.1442 23.1993 43.9901 22.5662 43.6818C21.9332 43.3703 21.441 42.9361 21.0897 42.3793C20.7383 41.8224 20.5627 41.1728 20.5627 40.4304V33.8182H22.7154V40.2464C22.7154 40.6342 22.7999 40.9789 22.9689 41.2805C23.1413 41.5821 23.3832 41.8191 23.6948 41.9915C24.0063 42.1638 24.3693 42.25 24.7836 42.25C25.2012 42.25 25.5641 42.1638 25.8723 41.9915C26.1839 41.8191 26.4242 41.5821 26.5932 41.2805C26.7656 40.9789 26.8517 40.6342 26.8517 40.2464V33.8182ZM36.299 36.7464C36.2592 36.3454 36.0885 36.0339 35.7869 35.8118C35.4853 35.5897 35.076 35.4787 34.5589 35.4787C34.2076 35.4787 33.911 35.5284 33.669 35.6278C33.4271 35.724 33.2415 35.8582 33.1122 36.0305C32.9863 36.2029 32.9233 36.3984 32.9233 36.6172C32.9167 36.7995 32.9548 36.9586 33.0376 37.0945C33.1238 37.2304 33.2415 37.348 33.3906 37.4474C33.5398 37.5436 33.7121 37.6281 33.9077 37.701C34.1032 37.7706 34.312 37.8303 34.5341 37.88L35.4489 38.0987C35.893 38.1982 36.3007 38.3307 36.6719 38.4964C37.0431 38.6622 37.3646 38.866 37.6364 39.108C37.9081 39.3499 38.1186 39.6349 38.2678 39.9631C38.4202 40.2912 38.4981 40.6674 38.5014 41.0916C38.4981 41.7147 38.339 42.255 38.0241 42.7124C37.7126 43.1664 37.2618 43.5194 36.6719 43.7713C36.0852 44.0199 35.3776 44.1442 34.549 44.1442C33.727 44.1442 33.0111 44.0182 32.4013 43.7663C31.7947 43.5144 31.3208 43.1416 30.9794 42.6477C30.6413 42.1506 30.464 41.5357 30.4474 40.8033H32.5305C32.5537 41.1446 32.6515 41.4297 32.8239 41.6584C32.9995 41.8838 33.2332 42.0545 33.5249 42.1705C33.8198 42.2831 34.1529 42.3395 34.5241 42.3395C34.8887 42.3395 35.2053 42.2865 35.4737 42.1804C35.7455 42.0743 35.956 41.9268 36.1051 41.7379C36.2543 41.549 36.3288 41.3319 36.3288 41.0866C36.3288 40.858 36.2609 40.6657 36.125 40.5099C35.9924 40.3542 35.7969 40.2216 35.5384 40.1122C35.2831 40.0028 34.9699 39.9034 34.5987 39.8139L33.4901 39.5355C32.6316 39.3267 31.9538 39.0002 31.4567 38.5561C30.9595 38.112 30.7126 37.5137 30.7159 36.7614C30.7126 36.1449 30.8767 35.6063 31.2081 35.1456C31.5429 34.6849 32.0019 34.3253 32.5852 34.0668C33.1686 33.8082 33.8314 33.679 34.5739 33.679C35.3295 33.679 35.9891 33.8082 36.5526 34.0668C37.1193 34.3253 37.5601 34.6849 37.875 35.1456C38.1899 35.6063 38.3523 36.1399 38.3622 36.7464H36.299ZM39.9494 44V33.8182H42.1021V38.0192H46.4721V33.8182H48.6199V44H46.4721V39.794H42.1021V44H39.9494Z" fill="#C5F31D"/>
</svg>
